<svg id="visual" width="960" height="540" <rect x="0" y="0" width="960" height="540" fill="#040409"></rect><defs><linearGradient id="grad1_0" x1="43.8%" y1="0%" x2="100%" y2="100%"><stop offset="14.444444444444446%" stop-color="#040409" stop-opacity="1"></stop><stop offset="85.55555555555554%" stop-color="#040409" stop-opacity="1"></stop></linearGradient></defs><defs><linearGradient id="grad2_0" x1="0%" y1="0%" x2="56.3%" y2="100%"><stop offset="14.444444444444446%" stop-color="#040409" stop-opacity="1"></stop><stop offset="85.55555555555554%" stop-color="#040409" stop-opacity="1"></stop></linearGradient></defs><g transform="translate(960, 0)"><path d="M0 486C-52.7 444.3 -105.5 402.5 -155 374.2C-204.5 345.8 -250.8 330.9 -304.1 304.1C-357.3 277.3 -417.5 238.6 -449 186C-480.5 133.3 -483.2 66.7 -486 0L0 0Z" fill="#f7b10f"></path></g><g transform="translate(0, 540)"><path d="M0 -486C58.7 -465.4 117.5 -444.7 174.9 -422.2C232.3 -399.7 288.3 -375.4 336.6 -336.6C384.9 -297.8 425.4 -244.5 449 -186C472.6 -127.5 479.3 -63.7 486 0L0 0Z" fill="#f7b10f"></path></g></svg>