<svg id="visual" viewBox="0 0 960 540" width="960" height="540" xmlns="http://www.w3.org/2000/svg" xmlns:xlink="http://www.w3.org/1999/xlink" version="1.1"><path d="M0 126L60 126L60 88L120 88L120 80L180 80L180 127L240 127L240 143L300 143L300 79L360 79L360 142L420 142L420 156L480 156L480 113L540 113L540 86L600 86L600 99L660 99L660 147L720 147L720 87L780 87L780 108L840 108L840 97L900 97L900 56L960 56L960 137L960 0L960 0L900 0L900 0L840 0L840 0L780 0L780 0L720 0L720 0L660 0L660 0L600 0L600 0L540 0L540 0L480 0L480 0L420 0L420 0L360 0L360 0L300 0L300 0L240 0L240 0L180 0L180 0L120 0L120 0L60 0L60 0L0 0Z" fill="#0e0e13" stroke-linecap="square" stroke-linejoin="miter"></path></svg>