<svg id="visual" viewBox="0 0 960 540" width="960" height="540" xmlns="http://www.w3.org/2000/svg" xmlns:xlink="http://www.w3.org/1999/xlink" version="1.1"><path d="M0 118L51 118L51 201L101 201L101 282L152 282L152 264L202 264L202 242L253 242L253 264L303 264L303 123L354 123L354 189L404 189L404 155L455 155L455 126L505 126L505 199L556 199L556 159L606 159L606 236L657 236L657 195L707 195L707 122L758 122L758 190L808 190L808 196L859 196L859 163L909 163L909 222L960 222L960 206L960 0L960 0L909 0L909 0L859 0L859 0L808 0L808 0L758 0L758 0L707 0L707 0L657 0L657 0L606 0L606 0L556 0L556 0L505 0L505 0L455 0L455 0L404 0L404 0L354 0L354 0L303 0L303 0L253 0L253 0L202 0L202 0L152 0L152 0L101 0L101 0L51 0L51 0L0 0Z" fill="#040409" stroke-linecap="square" stroke-linejoin="miter"></path></svg>