<svg id="visual" viewBox="0 0 960 540" width="100%" height="100%" xmlns="http://www.w3.org/2000/svg" xmlns:xlink="http://www.w3.org/1999/xlink" version="1.1"><path d="M0 317L137 317L137 250L274 250L274 285L411 285L411 268L549 268L549 307L686 307L686 303L823 303L823 228L960 228L960 244L960 541L960 541L823 541L823 541L686 541L686 541L549 541L549 541L411 541L411 541L274 541L274 541L137 541L137 541L0 541Z" fill="#fc7a1e"></path><path d="M0 372L137 372L137 411L274 411L274 382L411 382L411 396L549 396L549 370L686 370L686 356L823 356L823 333L960 333L960 350L960 541L960 541L823 541L823 541L686 541L686 541L549 541L549 541L411 541L411 541L274 541L274 541L137 541L137 541L0 541Z" fill="#d26214"></path><path d="M0 416L137 416L137 443L274 443L274 410L411 410L411 471L549 471L549 451L686 451L686 459L823 459L823 478L960 478L960 443L960 541L960 541L823 541L823 541L686 541L686 541L549 541L549 541L411 541L411 541L274 541L274 541L137 541L137 541L0 541Z" fill="#aa4c09"></path></svg>