<svg id="visual" viewBox="0 0 960 540" width="960" height="540" xmlns="http://www.w3.org/2000/svg" xmlns:xlink="http://www.w3.org/1999/xlink" version="1.1"><rect x="0" y="0" width="960" height="540" fill="#040409"></rect><path d="M0 226L137 226L137 274L274 274L274 243L411 243L411 276L549 276L549 339L686 339L686 287L823 287L823 325L960 325L960 224L960 541L960 541L823 541L823 541L686 541L686 541L549 541L549 541L411 541L411 541L274 541L274 541L137 541L137 541L0 541Z" fill="#fc7a1e"></path><path d="M0 370L137 370L137 364L274 364L274 378L411 378L411 311L549 311L549 331L686 331L686 366L823 366L823 355L960 355L960 414L960 541L960 541L823 541L823 541L686 541L686 541L549 541L549 541L411 541L411 541L274 541L274 541L137 541L137 541L0 541Z" fill="#fb9610"></path><path d="M0 422L137 422L137 458L274 458L274 469L411 469L411 481L549 481L549 428L686 428L686 487L823 487L823 406L960 406L960 437L960 541L960 541L823 541L823 541L686 541L686 541L549 541L549 541L411 541L411 541L274 541L274 541L137 541L137 541L0 541Z" fill="#f7b10f"></path></svg>