<svg id="visual" viewBox="0 0 960 540" width="960" height="540" xmlns="http://www.w3.org/2000/svg" xmlns:xlink="http://www.w3.org/1999/xlink" version="1.1"><rect x="0" y="0" width="960" height="540" fill="#040409"></rect><path d="M0 54L16 58.8C32 63.7 64 73.3 96 75.7C128 78 160 73 192 68.7C224 64.3 256 60.7 288 71.5C320 82.3 352 107.7 384 124.5C416 141.3 448 149.7 480 149.2C512 148.7 544 139.3 576 138.7C608 138 640 146 672 142.3C704 138.7 736 123.3 768 110.7C800 98 832 88 864 82.5C896 77 928 76 944 75.5L960 75L960 0L944 0C928 0 896 0 864 0C832 0 800 0 768 0C736 0 704 0 672 0C640 0 608 0 576 0C544 0 512 0 480 0C448 0 416 0 384 0C352 0 320 0 288 0C256 0 224 0 192 0C160 0 128 0 96 0C64 0 32 0 16 0L0 0Z" fill="#f7b10f" stroke-linecap="round" stroke-linejoin="miter"></path></svg>