<svg id="visual" viewBox="0 0 960 540" width="960" height="540" xmlns="http://www.w3.org/2000/svg" xmlns:xlink="http://www.w3.org/1999/xlink" version="1.1"><rect x="0" y="0" width="960" height="540" fill="#040409"></rect><path d="M102 0L114.7 5.3C127.3 10.7 152.7 21.3 155.5 32C158.3 42.7 138.7 53.3 140 63.8C141.3 74.3 163.7 84.7 167.3 95.2C171 105.7 156 116.3 138.8 127C121.7 137.7 102.3 148.3 108 159C113.7 169.7 144.3 180.3 157.2 190.8C170 201.3 165 211.7 153.7 222.2C142.3 232.7 124.7 243.3 132.7 254C140.7 264.7 174.3 275.3 184 286C193.7 296.7 179.3 307.3 172.8 317.8C166.3 328.3 167.7 338.7 154 349.2C140.3 359.7 111.7 370.3 102.5 381C93.3 391.7 103.7 402.3 106.8 413C110 423.7 106 434.3 113.2 444.8C120.3 455.3 138.7 465.7 136.3 476.2C134 486.7 111 497.3 99 508C87 518.7 86 529.3 85.5 534.7L85 540L0 540L0 534.7C0 529.3 0 518.7 0 508C0 497.3 0 486.7 0 476.2C0 465.7 0 455.3 0 444.8C0 434.3 0 423.7 0 413C0 402.3 0 391.7 0 381C0 370.3 0 359.7 0 349.2C0 338.7 0 328.3 0 317.8C0 307.3 0 296.7 0 286C0 275.3 0 264.7 0 254C0 243.3 0 232.7 0 222.2C0 211.7 0 201.3 0 190.8C0 180.3 0 169.7 0 159C0 148.3 0 137.7 0 127C0 116.3 0 105.7 0 95.2C0 84.7 0 74.3 0 63.8C0 53.3 0 42.7 0 32C0 21.3 0 10.7 0 5.3L0 0Z" fill="#fc7a1e" stroke-linecap="round" stroke-linejoin="miter"></path></svg>