<svg id="visual" viewBox="0 0 960 540" width="960" height="540" xmlns="http://www.w3.org/2000/svg" xmlns:xlink="http://www.w3.org/1999/xlink" version="1.1"><path d="M0 50L8.5 55.8C17 61.7 34 73.3 50.8 85C67.7 96.7 84.3 108.3 101.2 113C118 117.7 135 115.3 151.8 112.5C168.7 109.7 185.3 106.3 202.2 106.3C219 106.3 236 109.7 252.8 101.2C269.7 92.7 286.3 72.3 303.2 66.8C320 61.3 337 70.7 353.8 73C370.7 75.3 387.3 70.7 404.2 66.2C421 61.7 438 57.3 454.8 60.5C471.7 63.7 488.3 74.3 505.2 76.8C522 79.3 539 73.7 555.8 76.3C572.7 79 589.3 90 606.2 92.5C623 95 640 89 656.8 80.8C673.7 72.7 690.3 62.3 707.2 62C724 61.7 741 71.3 757.8 76.5C774.7 81.7 791.3 82.3 808.2 80.3C825 78.3 842 73.7 858.8 75.5C875.7 77.3 892.3 85.7 909.2 88.8C926 92 943 90 951.5 89L960 88L960 0L951.5 0C943 0 926 0 909.2 0C892.3 0 875.7 0 858.8 0C842 0 825 0 808.2 0C791.3 0 774.7 0 757.8 0C741 0 724 0 707.2 0C690.3 0 673.7 0 656.8 0C640 0 623 0 606.2 0C589.3 0 572.7 0 555.8 0C539 0 522 0 505.2 0C488.3 0 471.7 0 454.8 0C438 0 421 0 404.2 0C387.3 0 370.7 0 353.8 0C337 0 320 0 303.2 0C286.3 0 269.7 0 252.8 0C236 0 219 0 202.2 0C185.3 0 168.7 0 151.8 0C135 0 118 0 101.2 0C84.3 0 67.7 0 50.8 0C34 0 17 0 8.5 0L0 0Z" fill="#040409" stroke-linecap="round" stroke-linejoin="miter"></path></svg>